<svg id="Layer_1" data-name="Layer 1" xmlns="http://www.w3.org/2000/svg" xmlns:xlink="http://www.w3.org/1999/xlink" viewBox="0 0 96 96"><defs><style>.cls-1{fill:url(#linear-gradient);}.cls-2{fill:url(#linear-gradient-2);}.cls-3{fill:url(#linear-gradient-3);}</style><linearGradient id="linear-gradient" x1="138.4" y1="-7.59" x2="168.55" y2="-65.47" gradientTransform="matrix(1, 0, 0, -1, -99.41, 9.19)" gradientUnits="userSpaceOnUse"><stop offset="0" stop-color="#2e3192"/><stop offset="0.99" stop-color="#c81a78"/></linearGradient><linearGradient id="linear-gradient-2" x1="125.12" y1="-14.52" x2="155.26" y2="-72.39" xlink:href="#linear-gradient"/><linearGradient id="linear-gradient-3" x1="132.99" y1="-10.42" x2="163.13" y2="-68.29" xlink:href="#linear-gradient"/></defs><path class="cls-1" d="M68.46,23.46c-.21.18-.16.45-.21.69A10,10,0,0,1,63.41,31L39.16,45.41a11.34,11.34,0,0,0-5.94,10.47c0,.44,0,.9-.48,1.07s-.81-.27-1-.68c-.92-1.67-1.86-3.33-2.8-5A15.62,15.62,0,0,1,27.57,47V44.57c.06-.2.13-.41.17-.61a11.33,11.33,0,0,1,5.6-8.09L59.47,20.29c2.2-1.31,4.34-2.7,6.62-3.87h.19a2.61,2.61,0,0,1,1.23,1.35,29.55,29.55,0,0,1,1,3.06Z"/><path class="cls-2" d="M50.12,79.58c-.23-.25-.56-.22-.85-.31a6.77,6.77,0,1,1,4,0l-1,.32Z"/><path class="cls-3" d="M64.87,45a9.64,9.64,0,0,1-5,8.16C56,55.47,52.09,57.71,48.2,60a11,11,0,0,0-5.87,10.2c0,.45,0,.9-.52,1.06s-.76-.25-1-.63c-1-1.69-2-3.36-2.89-5.07a11,11,0,0,1,4.2-14.76c6.48-3.82,13-7.58,19.51-11.35,1-.6,1.62-.41,2.17.66A10.44,10.44,0,0,1,64.87,45Z"/></svg>